<?xml version="1.0" encoding="UTF-8"?>
<svg width="222px" height="115px" viewBox="0 0 222 115" version="1.1" xmlns="http://www.w3.org/2000/svg" xmlns:xlink="http://www.w3.org/1999/xlink">
    <title>second-logo</title>
    <g id="second-logo" stroke="none" stroke-width="1" fill="none" fill-rule="evenodd">
        <rect id="Rectangle" fill="#F9F9F9" transform="translate(111.000000, 57.500000) scale(-1, 1) rotate(-360.000000) translate(-111.000000, -57.500000) " x="1.42108547e-14" y="0" width="222" height="115"></rect>
        <g id="Group-3" transform="translate(-95.000000, -75.000000)" fill="#F1F1F1">
            <g id="Group-2">
                <polygon id="Rectangle" transform="translate(109.500000, 133.000000) rotate(-330.000000) translate(-109.500000, -133.000000) " points="52.3776867 12.7739525 166.222171 12.9639193 166.622313 253.226047 52.7778294 253.036081"></polygon>
                <polygon id="Rectangle" transform="translate(109.500000, 133.000000) scale(-1, 1) rotate(-330.000000) translate(-109.500000, -133.000000) " points="52.3776867 12.7739525 166.222171 12.9639193 166.622313 253.226047 52.7778294 253.036081"></polygon>
            </g>
        </g>
        <g id="Group-3" transform="translate(208.500000, 58.000000) scale(-1, 1) translate(-208.500000, -58.000000) translate(99.000000, -75.000000)" fill="#F1F1F1">
            <g id="Group-2">
                <polygon id="Rectangle" transform="translate(109.500000, 133.000000) rotate(-330.000000) translate(-109.500000, -133.000000) " points="52.3776867 12.7739525 166.222171 12.9639193 166.622313 253.226047 52.7778294 253.036081"></polygon>
                <polygon id="Rectangle" transform="translate(109.500000, 133.000000) scale(-1, 1) rotate(-330.000000) translate(-109.500000, -133.000000) " points="52.3776867 12.7739525 166.222171 12.9639193 166.622313 253.226047 52.7778294 253.036081"></polygon>
            </g>
        </g>
        <g id="Group-2" transform="translate(17.000000, 39.000000)" fill-rule="nonzero">
            <path d="M11.4764275,36.1014286 L11.4764275,27.1685714 L16.8644217,36.1014286 L30.334407,36.1014286 L23.5994143,24.4728571 C24.4974134,23.8385714 25.3056125,23.0633333 26.0240117,22.1471429 C26.634651,21.3366667 27.1914104,20.3147619 27.6942899,19.0814286 C28.1971694,17.8480952 28.4486091,16.3504762 28.4486091,14.5885714 C28.4486091,12.3685714 28.0445095,10.4040476 27.2363104,8.695 C26.4281113,6.98595238 25.3056125,5.55 23.8688141,4.38714286 C22.4320156,3.22428571 20.7347975,2.34333333 18.7771596,1.74428571 C16.8195217,1.1452381 14.691264,0.845714286 12.3923865,0.845714286 L12.3923865,0.845714286 L0,0.845714286 L0,36.1014286 L11.4764275,36.1014286 Z M12.0691069,18.1828571 L11.4764275,18.1828571 L11.4764275,10.36 L12.0691069,10.36 C13.4340654,10.36 14.5924841,10.6595238 15.5443631,11.2585714 C16.4962421,11.857619 16.9721816,12.8619048 16.9721816,14.2714286 C16.9721816,15.6809524 16.4962421,16.6852381 15.5443631,17.2842857 C14.5924841,17.8833333 13.4340654,18.1828571 12.0691069,18.1828571 L12.0691069,18.1828571 Z M52.9639824,36.1014286 L52.9639824,26.8514286 L42.8884334,26.8514286 L42.8884334,22.7814286 L52.425183,22.7814286 L52.425183,14.0071429 L42.8884334,14.0071429 L42.8884334,10.0957143 L52.5868228,10.0957143 L52.5868228,0.845714286 L31.4120059,0.845714286 L31.4120059,36.1014286 L52.9639824,36.1014286 Z M76.5633968,36.1014286 L90.5721816,0.845714286 L78.0181552,0.845714286 L71.8758419,16.1742857 L65.7874085,0.845714286 L53.2333821,0.845714286 L67.2421669,36.1014286 L76.5633968,36.1014286 Z M112.932357,36.1014286 L112.932357,26.8514286 L102.856808,26.8514286 L102.856808,22.7814286 L112.393558,22.7814286 L112.393558,14.0071429 L102.856808,14.0071429 L102.856808,10.0957143 L112.555198,10.0957143 L112.555198,0.845714286 L91.3803807,0.845714286 L91.3803807,36.1014286 L112.932357,36.1014286 Z M127.641581,36.1014286 L127.641581,27.1685714 L133.029575,36.1014286 L146.499561,36.1014286 L139.764568,24.4728571 C140.662567,23.8385714 141.470766,23.0633333 142.189165,22.1471429 C142.799805,21.3366667 143.356564,20.3147619 143.859444,19.0814286 C144.362323,17.8480952 144.613763,16.3504762 144.613763,14.5885714 C144.613763,12.3685714 144.209663,10.4040476 143.401464,8.695 C142.593265,6.98595238 141.470766,5.55 140.033968,4.38714286 C138.597169,3.22428571 136.899951,2.34333333 134.942313,1.74428571 C132.984675,1.1452381 130.856418,0.845714286 128.55754,0.845714286 L128.55754,0.845714286 L116.165154,0.845714286 L116.165154,36.1014286 L127.641581,36.1014286 Z M128.234261,18.1828571 L127.641581,18.1828571 L127.641581,10.36 L128.234261,10.36 C129.599219,10.36 130.757638,10.6595238 131.709517,11.2585714 C132.661396,11.857619 133.137335,12.8619048 133.137335,14.2714286 C133.137335,15.6809524 132.661396,16.6852381 131.709517,17.2842857 C130.757638,17.8833333 129.599219,18.1828571 128.234261,18.1828571 L128.234261,18.1828571 Z M156.35959,37 C158.622548,37 160.580185,36.7092857 162.232504,36.1278571 C163.884822,35.5464286 165.2408,34.7535714 166.300439,33.7492857 C167.360078,32.745 168.141337,31.5645238 168.644217,30.2078571 C169.147096,28.8511905 169.398536,27.397619 169.398536,25.8471429 C169.398536,24.3671429 169.156076,23.0280952 168.671157,21.83 C168.186237,20.6319048 167.593558,19.5571429 166.893119,18.6057143 C166.192679,17.6542857 165.4204,16.8085714 164.576281,16.0685714 C163.732162,15.3285714 162.959883,14.6766667 162.259444,14.1128571 C161.559004,13.5490476 160.966325,13.0557143 160.481406,12.6328571 C159.996486,12.21 159.754026,11.857619 159.754026,11.5757143 C159.754026,11.2585714 159.861786,11.0119048 160.077306,10.8357143 C160.292826,10.6595238 160.544265,10.5361905 160.831625,10.4657143 C161.118985,10.3952381 161.424305,10.3511905 161.747584,10.3335714 C162.070864,10.3159524 162.340264,10.3071429 162.555783,10.3071429 C162.950903,10.3071429 163.328062,10.3247619 163.687262,10.36 C164.046462,10.3952381 164.369741,10.4304762 164.657101,10.4657143 C165.016301,10.5009524 165.33958,10.5361905 165.62694,10.5714286 L165.62694,10.5714286 L165.62694,0.687142857 C164.872621,0.581428571 164.100342,0.475714286 163.310102,0.37 C162.627623,0.29952381 161.855344,0.220238095 160.993265,0.132142857 C160.131186,0.044047619 159.269107,0 158.407028,0 C156.75471,0 155.201171,0.220238095 153.746413,0.660714286 C152.291654,1.10119048 151.025476,1.74428571 149.947877,2.59 C148.870278,3.43571429 148.026159,4.49285714 147.41552,5.76142857 C146.80488,7.03 146.499561,8.49238095 146.499561,10.1485714 C146.499561,11.6285714 146.751,12.9411905 147.25388,14.0864286 C147.756759,15.2316667 148.394339,16.262381 149.166618,17.1785714 C149.938897,18.0947619 150.765056,18.9052381 151.645095,19.61 C152.525134,20.3147619 153.351293,20.9578571 154.123572,21.5392857 C154.895852,22.1207143 155.533431,22.6492857 156.03631,23.125 C156.53919,23.6007143 156.79063,24.067619 156.79063,24.5257143 C156.79063,25.7238095 155.96447,26.3228571 154.312152,26.3228571 C153.378233,26.3228571 152.453294,26.27 151.537335,26.1642857 C150.621376,26.0585714 149.804197,25.917619 149.085798,25.7414286 C148.223719,25.6004762 147.39756,25.4066667 146.607321,25.16 L146.607321,25.16 L146.607321,35.7314286 C147.4694,35.9780952 148.421279,36.1895238 149.462958,36.3657143 C150.360957,36.5419048 151.393655,36.6916667 152.561054,36.815 C153.728453,36.9383333 154.994632,37 156.35959,37 Z M184,36.1014286 L184,0.845714286 L171.823133,0.845714286 L171.823133,36.1014286 L184,36.1014286 Z" id="Reversi" fill="#207AB4"></path>
            <path d="M15.4764275,36.1014286 L15.4764275,27.1685714 L20.8644217,36.1014286 L34.334407,36.1014286 L27.5994143,24.4728571 C28.4974134,23.8385714 29.3056125,23.0633333 30.0240117,22.1471429 C30.634651,21.3366667 31.1914104,20.3147619 31.6942899,19.0814286 C32.1971694,17.8480952 32.4486091,16.3504762 32.4486091,14.5885714 C32.4486091,12.3685714 32.0445095,10.4040476 31.2363104,8.695 C30.4281113,6.98595238 29.3056125,5.55 27.8688141,4.38714286 C26.4320156,3.22428571 24.7347975,2.34333333 22.7771596,1.74428571 C20.8195217,1.1452381 18.691264,0.845714286 16.3923865,0.845714286 L16.3923865,0.845714286 L4,0.845714286 L4,36.1014286 L15.4764275,36.1014286 Z M16.0691069,18.1828571 L15.4764275,18.1828571 L15.4764275,10.36 L16.0691069,10.36 C17.4340654,10.36 18.5924841,10.6595238 19.5443631,11.2585714 C20.4962421,11.857619 20.9721816,12.8619048 20.9721816,14.2714286 C20.9721816,15.6809524 20.4962421,16.6852381 19.5443631,17.2842857 C18.5924841,17.8833333 17.4340654,18.1828571 16.0691069,18.1828571 L16.0691069,18.1828571 Z M56.9639824,36.1014286 L56.9639824,26.8514286 L46.8884334,26.8514286 L46.8884334,22.7814286 L56.425183,22.7814286 L56.425183,14.0071429 L46.8884334,14.0071429 L46.8884334,10.0957143 L56.5868228,10.0957143 L56.5868228,0.845714286 L35.4120059,0.845714286 L35.4120059,36.1014286 L56.9639824,36.1014286 Z M80.5633968,36.1014286 L94.5721816,0.845714286 L82.0181552,0.845714286 L75.8758419,16.1742857 L69.7874085,0.845714286 L57.2333821,0.845714286 L71.2421669,36.1014286 L80.5633968,36.1014286 Z M116.932357,36.1014286 L116.932357,26.8514286 L106.856808,26.8514286 L106.856808,22.7814286 L116.393558,22.7814286 L116.393558,14.0071429 L106.856808,14.0071429 L106.856808,10.0957143 L116.555198,10.0957143 L116.555198,0.845714286 L95.3803807,0.845714286 L95.3803807,36.1014286 L116.932357,36.1014286 Z M131.641581,36.1014286 L131.641581,27.1685714 L137.029575,36.1014286 L150.499561,36.1014286 L143.764568,24.4728571 C144.662567,23.8385714 145.470766,23.0633333 146.189165,22.1471429 C146.799805,21.3366667 147.356564,20.3147619 147.859444,19.0814286 C148.362323,17.8480952 148.613763,16.3504762 148.613763,14.5885714 C148.613763,12.3685714 148.209663,10.4040476 147.401464,8.695 C146.593265,6.98595238 145.470766,5.55 144.033968,4.38714286 C142.597169,3.22428571 140.899951,2.34333333 138.942313,1.74428571 C136.984675,1.1452381 134.856418,0.845714286 132.55754,0.845714286 L132.55754,0.845714286 L120.165154,0.845714286 L120.165154,36.1014286 L131.641581,36.1014286 Z M132.234261,18.1828571 L131.641581,18.1828571 L131.641581,10.36 L132.234261,10.36 C133.599219,10.36 134.757638,10.6595238 135.709517,11.2585714 C136.661396,11.857619 137.137335,12.8619048 137.137335,14.2714286 C137.137335,15.6809524 136.661396,16.6852381 135.709517,17.2842857 C134.757638,17.8833333 133.599219,18.1828571 132.234261,18.1828571 L132.234261,18.1828571 Z M160.35959,37 C162.622548,37 164.580185,36.7092857 166.232504,36.1278571 C167.884822,35.5464286 169.2408,34.7535714 170.300439,33.7492857 C171.360078,32.745 172.141337,31.5645238 172.644217,30.2078571 C173.147096,28.8511905 173.398536,27.397619 173.398536,25.8471429 C173.398536,24.3671429 173.156076,23.0280952 172.671157,21.83 C172.186237,20.6319048 171.593558,19.5571429 170.893119,18.6057143 C170.192679,17.6542857 169.4204,16.8085714 168.576281,16.0685714 C167.732162,15.3285714 166.959883,14.6766667 166.259444,14.1128571 C165.559004,13.5490476 164.966325,13.0557143 164.481406,12.6328571 C163.996486,12.21 163.754026,11.857619 163.754026,11.5757143 C163.754026,11.2585714 163.861786,11.0119048 164.077306,10.8357143 C164.292826,10.6595238 164.544265,10.5361905 164.831625,10.4657143 C165.118985,10.3952381 165.424305,10.3511905 165.747584,10.3335714 C166.070864,10.3159524 166.340264,10.3071429 166.555783,10.3071429 C166.950903,10.3071429 167.328062,10.3247619 167.687262,10.36 C168.046462,10.3952381 168.369741,10.4304762 168.657101,10.4657143 C169.016301,10.5009524 169.33958,10.5361905 169.62694,10.5714286 L169.62694,10.5714286 L169.62694,0.687142857 C168.872621,0.581428571 168.100342,0.475714286 167.310102,0.37 C166.627623,0.29952381 165.855344,0.220238095 164.993265,0.132142857 C164.131186,0.044047619 163.269107,0 162.407028,0 C160.75471,0 159.201171,0.220238095 157.746413,0.660714286 C156.291654,1.10119048 155.025476,1.74428571 153.947877,2.59 C152.870278,3.43571429 152.026159,4.49285714 151.41552,5.76142857 C150.80488,7.03 150.499561,8.49238095 150.499561,10.1485714 C150.499561,11.6285714 150.751,12.9411905 151.25388,14.0864286 C151.756759,15.2316667 152.394339,16.262381 153.166618,17.1785714 C153.938897,18.0947619 154.765056,18.9052381 155.645095,19.61 C156.525134,20.3147619 157.351293,20.9578571 158.123572,21.5392857 C158.895852,22.1207143 159.533431,22.6492857 160.03631,23.125 C160.53919,23.6007143 160.79063,24.067619 160.79063,24.5257143 C160.79063,25.7238095 159.96447,26.3228571 158.312152,26.3228571 C157.378233,26.3228571 156.453294,26.27 155.537335,26.1642857 C154.621376,26.0585714 153.804197,25.917619 153.085798,25.7414286 C152.223719,25.6004762 151.39756,25.4066667 150.607321,25.16 L150.607321,25.16 L150.607321,35.7314286 C151.4694,35.9780952 152.421279,36.1895238 153.462958,36.3657143 C154.360957,36.5419048 155.393655,36.6916667 156.561054,36.815 C157.728453,36.9383333 158.994632,37 160.35959,37 Z M188,36.1014286 L188,0.845714286 L175.823133,0.845714286 L175.823133,36.1014286 L188,36.1014286 Z" id="Reversi" fill="#EDD135"></path>
        </g>
    </g>
</svg>