<?xml version="1.0" encoding="UTF-8"?>
<svg width="373px" height="193px" viewBox="0 0 373 193" version="1.1" xmlns="http://www.w3.org/2000/svg" xmlns:xlink="http://www.w3.org/1999/xlink">
    <title>top-logo</title>
    <g id="top-logo" stroke="none" stroke-width="1" fill="none" fill-rule="evenodd">
        <rect id="Rectangle" fill="#F9F9F9" transform="translate(186.500000, 106.500000) scale(-1, 1) rotate(-360.000000) translate(-186.500000, -106.500000) " x="0" y="20" width="373" height="173"></rect>
        <g id="Group-3" transform="translate(-157.000000, -122.000000)" fill="#F1F1F1">
            <g id="Group-2">
                <rect id="Rectangle" transform="translate(181.000000, 219.000000) rotate(-330.000000) translate(-181.000000, -219.000000) " x="87" y="21" width="188" height="396"></rect>
                <rect id="Rectangle" transform="translate(181.000000, 219.000000) scale(-1, 1) rotate(-330.000000) translate(-181.000000, -219.000000) " x="87" y="21" width="188" height="396"></rect>
            </g>
        </g>
        <g id="Group-3" transform="translate(343.000000, 97.000000) scale(-1, 1) translate(-343.000000, -97.000000) translate(162.000000, -122.000000)" fill="#F1F1F1">
            <g id="Group-2">
                <rect id="Rectangle" transform="translate(181.000000, 219.000000) rotate(-330.000000) translate(-181.000000, -219.000000) " x="87" y="21" width="188" height="396"></rect>
                <rect id="Rectangle" transform="translate(181.000000, 219.000000) scale(-1, 1) rotate(-330.000000) translate(-181.000000, -219.000000) " x="87" y="21" width="188" height="396"></rect>
            </g>
        </g>
        <g id="Group-2" transform="translate(92.000000, 25.000000)" fill-rule="nonzero">
            <path d="M11.4764275,36.1014286 L11.4764275,27.1685714 L16.8644217,36.1014286 L30.334407,36.1014286 L23.5994143,24.4728571 C24.4974134,23.8385714 25.3056125,23.0633333 26.0240117,22.1471429 C26.634651,21.3366667 27.1914104,20.3147619 27.6942899,19.0814286 C28.1971694,17.8480952 28.4486091,16.3504762 28.4486091,14.5885714 C28.4486091,12.3685714 28.0445095,10.4040476 27.2363104,8.695 C26.4281113,6.98595238 25.3056125,5.55 23.8688141,4.38714286 C22.4320156,3.22428571 20.7347975,2.34333333 18.7771596,1.74428571 C16.8195217,1.1452381 14.691264,0.845714286 12.3923865,0.845714286 L12.3923865,0.845714286 L0,0.845714286 L0,36.1014286 L11.4764275,36.1014286 Z M12.0691069,18.1828571 L11.4764275,18.1828571 L11.4764275,10.36 L12.0691069,10.36 C13.4340654,10.36 14.5924841,10.6595238 15.5443631,11.2585714 C16.4962421,11.857619 16.9721816,12.8619048 16.9721816,14.2714286 C16.9721816,15.6809524 16.4962421,16.6852381 15.5443631,17.2842857 C14.5924841,17.8833333 13.4340654,18.1828571 12.0691069,18.1828571 L12.0691069,18.1828571 Z M52.9639824,36.1014286 L52.9639824,26.8514286 L42.8884334,26.8514286 L42.8884334,22.7814286 L52.425183,22.7814286 L52.425183,14.0071429 L42.8884334,14.0071429 L42.8884334,10.0957143 L52.5868228,10.0957143 L52.5868228,0.845714286 L31.4120059,0.845714286 L31.4120059,36.1014286 L52.9639824,36.1014286 Z M76.5633968,36.1014286 L90.5721816,0.845714286 L78.0181552,0.845714286 L71.8758419,16.1742857 L65.7874085,0.845714286 L53.2333821,0.845714286 L67.2421669,36.1014286 L76.5633968,36.1014286 Z M112.932357,36.1014286 L112.932357,26.8514286 L102.856808,26.8514286 L102.856808,22.7814286 L112.393558,22.7814286 L112.393558,14.0071429 L102.856808,14.0071429 L102.856808,10.0957143 L112.555198,10.0957143 L112.555198,0.845714286 L91.3803807,0.845714286 L91.3803807,36.1014286 L112.932357,36.1014286 Z M127.641581,36.1014286 L127.641581,27.1685714 L133.029575,36.1014286 L146.499561,36.1014286 L139.764568,24.4728571 C140.662567,23.8385714 141.470766,23.0633333 142.189165,22.1471429 C142.799805,21.3366667 143.356564,20.3147619 143.859444,19.0814286 C144.362323,17.8480952 144.613763,16.3504762 144.613763,14.5885714 C144.613763,12.3685714 144.209663,10.4040476 143.401464,8.695 C142.593265,6.98595238 141.470766,5.55 140.033968,4.38714286 C138.597169,3.22428571 136.899951,2.34333333 134.942313,1.74428571 C132.984675,1.1452381 130.856418,0.845714286 128.55754,0.845714286 L128.55754,0.845714286 L116.165154,0.845714286 L116.165154,36.1014286 L127.641581,36.1014286 Z M128.234261,18.1828571 L127.641581,18.1828571 L127.641581,10.36 L128.234261,10.36 C129.599219,10.36 130.757638,10.6595238 131.709517,11.2585714 C132.661396,11.857619 133.137335,12.8619048 133.137335,14.2714286 C133.137335,15.6809524 132.661396,16.6852381 131.709517,17.2842857 C130.757638,17.8833333 129.599219,18.1828571 128.234261,18.1828571 L128.234261,18.1828571 Z M156.35959,37 C158.622548,37 160.580185,36.7092857 162.232504,36.1278571 C163.884822,35.5464286 165.2408,34.7535714 166.300439,33.7492857 C167.360078,32.745 168.141337,31.5645238 168.644217,30.2078571 C169.147096,28.8511905 169.398536,27.397619 169.398536,25.8471429 C169.398536,24.3671429 169.156076,23.0280952 168.671157,21.83 C168.186237,20.6319048 167.593558,19.5571429 166.893119,18.6057143 C166.192679,17.6542857 165.4204,16.8085714 164.576281,16.0685714 C163.732162,15.3285714 162.959883,14.6766667 162.259444,14.1128571 C161.559004,13.5490476 160.966325,13.0557143 160.481406,12.6328571 C159.996486,12.21 159.754026,11.857619 159.754026,11.5757143 C159.754026,11.2585714 159.861786,11.0119048 160.077306,10.8357143 C160.292826,10.6595238 160.544265,10.5361905 160.831625,10.4657143 C161.118985,10.3952381 161.424305,10.3511905 161.747584,10.3335714 C162.070864,10.3159524 162.340264,10.3071429 162.555783,10.3071429 C162.950903,10.3071429 163.328062,10.3247619 163.687262,10.36 C164.046462,10.3952381 164.369741,10.4304762 164.657101,10.4657143 C165.016301,10.5009524 165.33958,10.5361905 165.62694,10.5714286 L165.62694,10.5714286 L165.62694,0.687142857 C164.872621,0.581428571 164.100342,0.475714286 163.310102,0.37 C162.627623,0.29952381 161.855344,0.220238095 160.993265,0.132142857 C160.131186,0.044047619 159.269107,0 158.407028,0 C156.75471,0 155.201171,0.220238095 153.746413,0.660714286 C152.291654,1.10119048 151.025476,1.74428571 149.947877,2.59 C148.870278,3.43571429 148.026159,4.49285714 147.41552,5.76142857 C146.80488,7.03 146.499561,8.49238095 146.499561,10.1485714 C146.499561,11.6285714 146.751,12.9411905 147.25388,14.0864286 C147.756759,15.2316667 148.394339,16.262381 149.166618,17.1785714 C149.938897,18.0947619 150.765056,18.9052381 151.645095,19.61 C152.525134,20.3147619 153.351293,20.9578571 154.123572,21.5392857 C154.895852,22.1207143 155.533431,22.6492857 156.03631,23.125 C156.53919,23.6007143 156.79063,24.067619 156.79063,24.5257143 C156.79063,25.7238095 155.96447,26.3228571 154.312152,26.3228571 C153.378233,26.3228571 152.453294,26.27 151.537335,26.1642857 C150.621376,26.0585714 149.804197,25.917619 149.085798,25.7414286 C148.223719,25.6004762 147.39756,25.4066667 146.607321,25.16 L146.607321,25.16 L146.607321,35.7314286 C147.4694,35.9780952 148.421279,36.1895238 149.462958,36.3657143 C150.360957,36.5419048 151.393655,36.6916667 152.561054,36.815 C153.728453,36.9383333 154.994632,37 156.35959,37 Z M184,36.1014286 L184,0.845714286 L171.823133,0.845714286 L171.823133,36.1014286 L184,36.1014286 Z" id="Reversi" fill="#207AB4"></path>
            <path d="M15.4764275,36.1014286 L15.4764275,27.1685714 L20.8644217,36.1014286 L34.334407,36.1014286 L27.5994143,24.4728571 C28.4974134,23.8385714 29.3056125,23.0633333 30.0240117,22.1471429 C30.634651,21.3366667 31.1914104,20.3147619 31.6942899,19.0814286 C32.1971694,17.8480952 32.4486091,16.3504762 32.4486091,14.5885714 C32.4486091,12.3685714 32.0445095,10.4040476 31.2363104,8.695 C30.4281113,6.98595238 29.3056125,5.55 27.8688141,4.38714286 C26.4320156,3.22428571 24.7347975,2.34333333 22.7771596,1.74428571 C20.8195217,1.1452381 18.691264,0.845714286 16.3923865,0.845714286 L16.3923865,0.845714286 L4,0.845714286 L4,36.1014286 L15.4764275,36.1014286 Z M16.0691069,18.1828571 L15.4764275,18.1828571 L15.4764275,10.36 L16.0691069,10.36 C17.4340654,10.36 18.5924841,10.6595238 19.5443631,11.2585714 C20.4962421,11.857619 20.9721816,12.8619048 20.9721816,14.2714286 C20.9721816,15.6809524 20.4962421,16.6852381 19.5443631,17.2842857 C18.5924841,17.8833333 17.4340654,18.1828571 16.0691069,18.1828571 L16.0691069,18.1828571 Z M56.9639824,36.1014286 L56.9639824,26.8514286 L46.8884334,26.8514286 L46.8884334,22.7814286 L56.425183,22.7814286 L56.425183,14.0071429 L46.8884334,14.0071429 L46.8884334,10.0957143 L56.5868228,10.0957143 L56.5868228,0.845714286 L35.4120059,0.845714286 L35.4120059,36.1014286 L56.9639824,36.1014286 Z M80.5633968,36.1014286 L94.5721816,0.845714286 L82.0181552,0.845714286 L75.8758419,16.1742857 L69.7874085,0.845714286 L57.2333821,0.845714286 L71.2421669,36.1014286 L80.5633968,36.1014286 Z M116.932357,36.1014286 L116.932357,26.8514286 L106.856808,26.8514286 L106.856808,22.7814286 L116.393558,22.7814286 L116.393558,14.0071429 L106.856808,14.0071429 L106.856808,10.0957143 L116.555198,10.0957143 L116.555198,0.845714286 L95.3803807,0.845714286 L95.3803807,36.1014286 L116.932357,36.1014286 Z M131.641581,36.1014286 L131.641581,27.1685714 L137.029575,36.1014286 L150.499561,36.1014286 L143.764568,24.4728571 C144.662567,23.8385714 145.470766,23.0633333 146.189165,22.1471429 C146.799805,21.3366667 147.356564,20.3147619 147.859444,19.0814286 C148.362323,17.8480952 148.613763,16.3504762 148.613763,14.5885714 C148.613763,12.3685714 148.209663,10.4040476 147.401464,8.695 C146.593265,6.98595238 145.470766,5.55 144.033968,4.38714286 C142.597169,3.22428571 140.899951,2.34333333 138.942313,1.74428571 C136.984675,1.1452381 134.856418,0.845714286 132.55754,0.845714286 L132.55754,0.845714286 L120.165154,0.845714286 L120.165154,36.1014286 L131.641581,36.1014286 Z M132.234261,18.1828571 L131.641581,18.1828571 L131.641581,10.36 L132.234261,10.36 C133.599219,10.36 134.757638,10.6595238 135.709517,11.2585714 C136.661396,11.857619 137.137335,12.8619048 137.137335,14.2714286 C137.137335,15.6809524 136.661396,16.6852381 135.709517,17.2842857 C134.757638,17.8833333 133.599219,18.1828571 132.234261,18.1828571 L132.234261,18.1828571 Z M160.35959,37 C162.622548,37 164.580185,36.7092857 166.232504,36.1278571 C167.884822,35.5464286 169.2408,34.7535714 170.300439,33.7492857 C171.360078,32.745 172.141337,31.5645238 172.644217,30.2078571 C173.147096,28.8511905 173.398536,27.397619 173.398536,25.8471429 C173.398536,24.3671429 173.156076,23.0280952 172.671157,21.83 C172.186237,20.6319048 171.593558,19.5571429 170.893119,18.6057143 C170.192679,17.6542857 169.4204,16.8085714 168.576281,16.0685714 C167.732162,15.3285714 166.959883,14.6766667 166.259444,14.1128571 C165.559004,13.5490476 164.966325,13.0557143 164.481406,12.6328571 C163.996486,12.21 163.754026,11.857619 163.754026,11.5757143 C163.754026,11.2585714 163.861786,11.0119048 164.077306,10.8357143 C164.292826,10.6595238 164.544265,10.5361905 164.831625,10.4657143 C165.118985,10.3952381 165.424305,10.3511905 165.747584,10.3335714 C166.070864,10.3159524 166.340264,10.3071429 166.555783,10.3071429 C166.950903,10.3071429 167.328062,10.3247619 167.687262,10.36 C168.046462,10.3952381 168.369741,10.4304762 168.657101,10.4657143 C169.016301,10.5009524 169.33958,10.5361905 169.62694,10.5714286 L169.62694,10.5714286 L169.62694,0.687142857 C168.872621,0.581428571 168.100342,0.475714286 167.310102,0.37 C166.627623,0.29952381 165.855344,0.220238095 164.993265,0.132142857 C164.131186,0.044047619 163.269107,0 162.407028,0 C160.75471,0 159.201171,0.220238095 157.746413,0.660714286 C156.291654,1.10119048 155.025476,1.74428571 153.947877,2.59 C152.870278,3.43571429 152.026159,4.49285714 151.41552,5.76142857 C150.80488,7.03 150.499561,8.49238095 150.499561,10.1485714 C150.499561,11.6285714 150.751,12.9411905 151.25388,14.0864286 C151.756759,15.2316667 152.394339,16.262381 153.166618,17.1785714 C153.938897,18.0947619 154.765056,18.9052381 155.645095,19.61 C156.525134,20.3147619 157.351293,20.9578571 158.123572,21.5392857 C158.895852,22.1207143 159.533431,22.6492857 160.03631,23.125 C160.53919,23.6007143 160.79063,24.067619 160.79063,24.5257143 C160.79063,25.7238095 159.96447,26.3228571 158.312152,26.3228571 C157.378233,26.3228571 156.453294,26.27 155.537335,26.1642857 C154.621376,26.0585714 153.804197,25.917619 153.085798,25.7414286 C152.223719,25.6004762 151.39756,25.4066667 150.607321,25.16 L150.607321,25.16 L150.607321,35.7314286 C151.4694,35.9780952 152.421279,36.1895238 153.462958,36.3657143 C154.360957,36.5419048 155.393655,36.6916667 156.561054,36.815 C157.728453,36.9383333 158.994632,37 160.35959,37 Z M188,36.1014286 L188,0.845714286 L175.823133,0.845714286 L175.823133,36.1014286 L188,36.1014286 Z" id="Reversi" fill="#EDD135"></path>
        </g>
        <g id="Group" transform="translate(133.000000, 70.000000)">
            <path d="M21.3957163,39.2050827 C21.8642398,35.4792778 22.267367,32.2612835 26.9355811,35.0598225 L29.2289274,36.4353755 L32.7719684,38.5586936 L35.0653148,39.9323866 C39.7335288,42.7309255 40.1366561,46.4325489 40.6042837,50.7182476 C41.0271195,54.6096025 41.9910416,65.8865332 42,66 L41.0602655,65.3936034 C41.0504113,65.2801365 40.1079892,54.2394401 39.6860494,50.3731968 C39.183484,45.7601183 38.7776692,43.4452086 35.0653148,41.2195843 L29.2289274,37.7207131 L26.9355811,36.3470201 C23.2232266,34.1213958 22.816516,35.9498862 22.3139506,39.9602882 C21.8929066,43.3224412 20.9549638,53.2247489 20.9451095,53.3270551 L20,52.812734 C20.0098542,52.7104278 20.9728805,42.5886269 21.3957163,39.2050827" id="Fill-671" fill="#B6958E"></path>
            <path d="M21.1543278,53.1447266 L20,54 C20,54 20.1694291,47.0493846 20.3771639,44.4461754 C20.5848987,41.8429662 21.5425414,36 21.5425414,36 L22,36.4580153 L21.1543278,53.1447266" id="Fill-672" fill="#B6958E"></path>
            <path d="M41.5146919,66 L43,65.1558687 C43,65.1558687 41.2853081,52.4505389 40.9924171,50.5094981 C40.6995261,48.5675347 39.642654,44 39.642654,44 L38,44.4003858 C38,44.4003858 39.2322275,47.3193274 39.4075829,49.2843544 C39.5838863,51.2512266 41.5146919,66 41.5146919,66" id="Fill-673" fill="#B6958E"></path>
            <path d="M20.3965552,39.2047483 C20.8641639,35.4788969 21.2672747,32.2617926 25.9352987,35.0594364 L28.2285517,36.4350066 L31.7705525,38.5583512 L34.0647013,39.9329914 C38.7327253,42.7306351 39.1358361,46.4323048 39.602549,50.7180569 C40.0271591,54.6094604 40.9901462,65.8865317 41,66 L40.059408,65.3935958 C40.0495541,65.2801276 39.1071705,54.2402235 38.6852478,50.3730018 C38.1827029,45.7598658 37.7760088,43.4449272 34.0647013,41.2192751 L31.7705525,39.845565 L28.2285517,37.7212903 L25.9352987,36.3466501 C22.2230954,34.120998 21.8164013,35.9495112 21.3138564,39.9599633 C20.8928295,43.3221582 19.9558207,53.2255195 19.9459669,53.3268969 L19,52.8125695 C19.0098538,52.710262 19.9719451,42.5883348 20.3965552,39.2047483" id="Fill-674" fill="#A4837D"></path>
            <path d="M7.3966121,47.2050827 C7.86334392,43.4792778 8.26647121,40.2612835 12.9346852,43.0598225 L15.2280316,44.4353755 L21.0653148,47.9323866 C25.732633,50.7309255 26.1366561,54.4325489 26.6033879,58.7182476 C27.0280153,62.6096025 27.9910416,73.8865332 28,74 L27.0602655,73.3936034 C27.0495154,73.2801365 26.1070934,62.2394401 25.6860494,58.3731968 C25.183484,53.7601183 24.7767734,51.4452086 21.0653148,49.2195843 L15.2280316,45.7207131 L12.9346852,44.3470201 C9.22322665,42.1213958 8.816516,43.9498862 8.31395065,47.9602882 C7.89201075,51.3224412 6.95496376,61.2247489 6.94510954,61.3270551 L6,60.812734 C6.00895838,60.7104278 6.97198469,50.5886269 7.3966121,47.2050827" id="Fill-675" fill="#B6958E"></path>
            <path d="M7.15463918,61.1447266 L6,62 C6,62 6.16936672,55.0493846 6.37776141,52.4461754 C6.58541973,49.8429662 7.54270987,44 7.54270987,44 L8,44.4580153 L7.15463918,61.1447266" id="Fill-676" fill="#B6958E"></path>
            <path d="M26.5137441,74 L28,73.1558687 C28,73.1558687 26.2853081,60.4505389 25.9924171,58.5094981 C25.6985782,56.5675347 24.642654,52 24.642654,52 L23,52.4003858 C23,52.4003858 24.2322275,55.3193274 24.4085308,57.285277 C24.5838863,59.2512266 26.5137441,74 26.5137441,74" id="Fill-677" fill="#B6958E"></path>
            <path d="M6.39571626,48.2050827 C6.86334392,44.4792778 7.26647121,41.2612835 11.9346852,44.0598225 L20.0644189,48.9333166 C24.7335288,51.7309255 25.1357602,55.4325489 25.6033879,59.7182476 C26.0271195,63.6096025 26.9910416,74.8865332 27,75 L26.0602655,74.3936034 C26.0504113,74.2801365 25.1070934,63.2403702 24.6860494,59.3731968 C24.183484,54.7610484 23.7767734,52.4452086 20.0644189,50.2195843 L17.7710726,48.8458913 L11.9346852,45.3470201 C8.22322665,43.1213958 7.816516,44.9498862 7.31395065,48.9602882 C6.89290659,52.3224412 5.95496376,62.2256789 5.94510954,62.3270551 L5,61.812734 C5.00895838,61.7104278 5.97198469,51.5886269 6.39571626,48.2050827" id="Fill-678" fill="#A4837D"></path>
            <path d="M25.875048,54 L44,43.5334932 C44,43.5334932 30.0514521,36.9921576 26.5837989,34.1726164 C23.1170626,31.3549241 20.3113992,25.1796666 19.7676873,12.5573663 C19.6704977,10.3082045 19.9208069,6.85449758 19.298243,6.03914172 C17.9577594,5.26815898 1,16.1423437 1,16.1423437 C1,16.1423437 2.17819523,31.6766291 3.37747878,36.4273249 C4.57676234,41.1770963 8.13151947,44.710305 13.9949891,47.9661818 C19.8584588,51.2239075 25.875048,54 25.875048,54" id="Fill-679" fill="#9BB93C"></path>
            <path d="M1.63690966,15.9411685 C1.63690966,15.9411685 2.62128633,28.0099443 3.20596332,32.7592396 C3.7060527,36.8105171 4.77501698,41.4562654 11.1869436,45.3217129 C16.6758428,48.6315196 23.8760144,52.6569103 26,53.8403049 L26,56 C24.6884273,55.2686991 21.5633335,53.5222676 18.080369,51.5225156 C15.7825605,50.2032156 13.3323085,48.7748213 11.1516213,47.4601439 C3.85106003,43.0584707 2.22809338,37.2820258 1.60344643,32.2119196 C1.00203782,27.3331905 0,15 0,15 L1.63690966,15.9411685" id="Fill-680" fill="#8DA33D"></path>
            <path d="M19.6316825,4.85503513 C19.6316825,4.85503513 20.6153406,16.9524391 21.2010728,21.7139565 C21.7003397,25.7723627 22.7704631,30.4282745 29.1837654,34.3004813 L44,42.8360108 L44,45 C42.6862864,44.2672451 39.5605221,42.5182675 36.0786698,40.5145394 C33.7803683,39.1926162 31.3295906,37.7613819 29.1484355,36.4440905 C21.8453782,32.0336655 20.2220633,26.2457353 19.5972823,21.1655483 C18.9985339,16.2974988 18,4 18,4 L19.6316825,4.85503513" id="Fill-681" fill="#9BB93C"></path>
            <polyline id="Fill-682" fill="#ADCD4D" points="18.3538141 5 20 5.93724354 1.64711338 16 0 15.0627565 18.3538141 5"></polyline>
            <polyline id="Fill-683" fill="#9EC346" points="44 45.2234588 26 56 26 53.7765412 44 43 44 45.2234588"></polyline>
            <path d="M86.8449355,55.1447266 L88,56 C88,56 87.8313076,49.0503194 87.6228361,46.4471101 C87.4143646,43.8429662 86.4574586,38 86.4574586,38 L86,38.4580153 L86.8449355,55.1447266" id="Fill-685" fill="#B6958E"></path>
            <path d="M100.604284,49.2053543 C100.136656,45.4785277 99.7335288,42.2613845 95.0653148,45.0599922 L92.7719684,46.4337189 L89.2280316,48.5580193 L86.9355811,49.932676 C82.2664712,52.7312837 81.8642398,56.4320681 81.3966121,60.7188021 C80.9728805,64.6093226 80.0089584,75.8865304 80,76 L80.9397345,75.3945186 C80.9495887,75.2810489 81.8929066,64.2400812 82.3139506,60.3728127 C82.816516,55.760551 83.2232266,53.4437242 86.9355811,51.2199054 L89.2280316,49.8443185 L92.7719684,47.7209482 L95.0653148,46.3462914 C98.7776692,44.1215425 99.183484,45.9500778 99.6860494,49.9596483 C100.107093,53.3218839 101.045036,63.225365 101.05489,63.3267436 L102,62.81334 C101.991042,62.7101013 101.027119,52.5880516 100.604284,49.2053543" id="Fill-688" fill="#B6958E"></path>
            <path d="M80.4862559,76 L79,75.1558333 C79,75.1558333 80.7146919,62.4499706 81.0085308,60.5088484 C81.3014218,58.5677262 82.357346,54 82.357346,54 L84,54.3985574 C84,54.3985574 82.7677725,57.3176214 82.5924171,59.284576 C82.4161137,61.2506081 80.4862559,76 80.4862559,76" id="Fill-690" fill="#B6958E"></path>
            <path d="M101.602549,49.2052339 C101.135836,45.4793208 100.731829,42.261233 96.0638055,45.0598533 L93.7705525,46.4345162 L90.2285517,48.5588261 L87.9344029,49.932559 C83.2663789,52.7311792 82.863268,56.4319802 82.3965552,60.7187335 C81.9719451,64.6092714 81.0098538,75.8865299 81,76 L81.940592,75.3945159 C81.9504459,75.2810457 82.8919337,64.2400284 83.3138564,60.3727426 C83.8172971,55.7604601 84.2230954,53.4454831 87.9344029,51.2197941 L93.7705525,47.7208212 L96.0638055,46.3470884 C99.7760088,44.1213993 100.182703,45.9499428 100.685248,49.9595314 C101.106275,53.3217821 102.043284,63.2253077 102.054033,63.3276168 L103,62.8132808 C102.990146,62.7100416 102.027159,52.5879464 101.602549,49.2052339" id="Fill-691" fill="#A4837D"></path>
            <path d="M81.1244216,55 L63,44.5341961 C63,44.5341961 76.9488453,37.992722 80.4165725,35.1740456 C83.8833827,32.3553691 86.6900228,26.1799809 87.2328294,13.5574135 C87.3291042,11.3091284 87.0806235,7.85442398 87.7022837,7.03905087 C89.0427959,6.26897626 106,17.1433912 106,17.1433912 C106,17.1433912 104.822697,32.6780054 103.624304,37.4278774 C102.424078,42.1777493 98.8692454,45.7110328 93.0056507,48.967903 C87.142056,52.2238487 81.1244216,55 81.1244216,55" id="Fill-692" fill="#9BB93C"></path>
            <path d="M105.362219,17.941211 C105.362219,17.941211 104.378807,30.0096065 103.793222,34.7600406 C103.295009,38.8105762 102.224224,43.4574586 95.8134563,47.3221558 C90.3247533,50.6321119 83.1257686,54.6576841 81,55.8402075 L81,58 C82.3133848,57.2695907 85.4383669,55.5230804 88.9193479,53.5232382 C91.2180037,52.2038787 93.6681682,50.77542 95.8478478,49.4616078 C103.149078,45.0597362 104.771986,39.2830308 105.39754,34.2126959 C105.997998,29.3328222 107,17 107,17 L105.362219,17.941211" id="Fill-693" fill="#8DA33D"></path>
            <path d="M87.3692473,6.8559615 C87.3692473,6.8559615 86.3837297,18.9533654 85.7989272,23.7139565 C85.2996603,27.773289 84.2295369,32.4282745 77.8162346,36.3014076 L63,44.8360108 L63,47 C64.3127838,46.2681714 67.4385482,44.5173411 70.9213302,42.5145394 C73.2196317,41.1916898 75.6713392,39.7613819 77.8515645,38.4450168 C85.1546218,34.0345918 86.7779367,28.2466617 87.4027177,23.1655483 C88.0014661,18.2984252 89,6 89,6 L87.3692473,6.8559615" id="Fill-694" fill="#9BB93C"></path>
            <polyline id="Fill-695" fill="#ADCD4D" points="88.6461859 6 87 6.93716814 105.353814 17 107 16.0628319 88.6461859 6"></polyline>
            <path d="M83.7452657,30 L75,36.6028637 C75,36.6028637 78.3144936,37.6524382 79.292184,39.6608132 C80.3872351,41.9103066 80.3872351,44 80.3872351,44 L89,41.0110766 C89,41.0110766 89.0283905,31.5280292 83.7452657,30" id="Fill-700" fill="#33221F"></path>
            <path d="M94.4221361,31 L81,40.9301296 C81,40.9301296 83.3954,42.0809601 84.3438279,44.0724215 C85.4061038,46.3000469 85.8899581,49 85.8899581,49 C85.8899581,49 94.6663586,46.5062217 95.8085118,40.4849794 C96.3731614,37.5020045 95.6230496,33.5312646 94.4221361,31" id="Fill-704" fill="#33221F"></path>
            <path d="M42.9987391,44.018285 C42.8924775,46.1081621 42.0486354,53.7445359 41.9700554,57.682937 C41.9254077,59.9429633 42.6120897,60.8556663 42.6120897,60.8556663 C43.3327041,62.4683856 42.961235,64.3668447 41.0467405,63.9386973 C40.2448673,63.7583761 39.5894387,62.8678665 39.0947419,61.8950565 L37.8919321,61.8294011 C37.8919321,61.8294011 37.2106078,50.4599149 37.1293489,46.4382887 C31.7251881,42.5997578 30,41.4003903 30,41.4003903 L32.8306659,36 C32.8306659,36 43.1308963,41.4392287 42.9987391,44.018285" id="Fill-705" fill="#F4C0AC"></path>
            <path d="M42.6483067,61.7565471 C42.6483067,61.7565471 44.2074153,63.3724279 45.1509706,64.4933061 C46.0954052,65.6150747 46.2730363,66.8089569 45.5774611,67.4588704 C44.6919437,68.2859521 43.4467673,68.331357 41.0188492,66.4038738 C38.7448195,64.5983606 38,62.694025 38,62.694025 L38.1415773,60 C38.1415773,60 39.5934037,63.7703886 41.7627894,63.5745243 C43.3702628,63.4285163 42.6483067,61.7565471 42.6483067,61.7565471" id="Fill-706" fill="#DE4C4D"></path>
            <path d="M35.9981748,49.5299024 C35.8900321,51.5774555 35.0402105,57.9618021 34.961807,61.815221 C34.9158463,64.0293302 35.608861,64.9218533 35.608861,64.9218533 C36.3361208,66.500515 35.961226,68.3597874 34.029076,67.9397765 C33.2198079,67.7650736 32.5583349,66.8924648 32.059076,65.9392935 L30.8460751,65.8759298 C30.8460751,65.8759298 30.32699,55.4254432 30.2458829,51.4878411 C25.8453751,48.5495752 22,42.9961984 22,42.9961984 L29.0076487,40 C29.0076487,40 36.1306496,47.0062162 35.9981748,49.5299024" id="Fill-707" fill="#F4C0AC"></path>
            <path d="M35.648006,65.756477 C35.648006,65.756477 37.2073087,67.3722934 38.1509814,68.4931269 C39.0964131,69.6148506 39.2723074,70.8104657 38.577525,71.4585728 C37.6918974,72.2856215 36.446566,72.3319149 34.0183456,70.4045086 C31.7440328,68.5981772 31,66.6948078 31,66.6948078 L31.1407154,64 C31.1407154,64 32.5936021,67.7711285 34.7623784,67.5743817 C36.370052,67.4292698 35.648006,65.756477 35.648006,65.756477" id="Fill-708" fill="#DE4C4D"></path>
            <path d="M29.7870019,32.7789532 L29.7851658,32.7789532 C29.7879199,29.1782886 30.078015,25.0877873 29.4849726,23.6420382 C28.596327,21.4706729 26.991624,17.8078649 26.991624,17.8078649 L20.0128184,17 L16.7887241,19.7882304 C16.7887241,19.7882304 17.7140906,29.611465 16.4765965,36.022293 C16.1167318,37.8847688 14.9930725,40.0981723 18.2988708,43.3862919 C21.6046691,46.6753254 27.9739078,50 27.9739078,50 C27.9739078,50 31.2484934,44.7040986 34.8710094,42.1233176 C38.4935254,39.5425367 40,39.6704791 40,39.6704791 C40,39.6704791 30.3837164,32.8045417 29.7870019,32.7789532" id="Fill-709" fill="#DE4C4D"></path>
            <polyline id="Fill-710" fill="#F0B741" points="19 55.9824375 16 54 16 89.016646 19 91 19 55.9824375"></polyline>
            <polyline id="Fill-711" fill="#E5833B" points="20 55.9824375 23 54 23 89.016646 20 91 20 55.9824375"></polyline>
            <polyline id="Fill-712" fill="#F0B741" points="55 76.983354 52 75 52 110.017563 55 112 55 76.983354"></polyline>
            <polyline id="Fill-713" fill="#E5833B" points="55 76.983354 58 75 58 110.017563 55 112 55 76.983354"></polyline>
            <polyline id="Fill-714" fill="#F0B741" points="90 56.983354 87 55 87 90.0175625 90 92 90 56.983354"></polyline>
            <polyline id="Fill-715" fill="#E5833B" points="90 56.983354 93 55 93 90.0175625 90 92 90 56.983354"></polyline>
            <path d="M44.6944153,32.9206901 L13.7444824,50.9508931 C11.4185059,52.3068455 11.4185059,55.6925784 13.7444824,57.0466872 L44.6962439,75.0796556 C51.3815976,78.9732945 59.6203452,78.9732945 66.3047847,75.0805774 L97.2547176,57.0549833 C99.5816084,55.6999527 99.5816084,52.3151416 97.2556319,50.9591892 L66.3066133,32.9225337 C59.6212595,29.0261294 51.379769,29.0261294 44.6944153,32.9206901" id="Fill-716" fill="#CC5C2D"></path>
            <polygon id="Fill-717" fill="#CC5C2D" points="95 53 99 53 99 51 95 51"></polygon>
            <polygon id="Fill-718" fill="#CC5C2D" points="11 54 15 54 15 51 11 51"></polygon>
            <path d="M13.7444824,47.9510376 C11.4185059,49.3060552 11.4185059,52.6917556 13.7444824,54.047695 L44.6962439,72.0786466 C51.3815976,75.9731699 59.6203452,75.9740917 66.3047847,72.0795684 L97.2547176,54.0541474 C99.5816084,52.7000516 99.5816084,49.3143512 97.2556319,47.9584119 L66.3066133,29.9228514 C59.6212595,26.0264845 51.379769,26.0255627 44.6944153,29.9210078 L13.7444824,47.9510376 Z" id="Fill-719" fill="#E9874A"></path>
            <polyline id="Fill-720" fill="#FFFFFE" points="49.3100355 66 21 49.7567349 53.6899645 31 82 47.2441761 49.3100355 66"></polyline>
            <polyline id="Fill-721" fill="#ADCD4D" points="71 47.2155836 75.641406 50 81 46.7844164 76.358594 44 71 47.2155836"></polyline>
            <polyline id="Fill-722" fill="#70903D" points="66 50.2146014 70.641406 53 76 49.7844164 71.358594 47 66 50.2146014"></polyline>
            <polyline id="Fill-723" fill="#ADCD4D" points="61 53.2160393 65.6404611 56 71 52.7849427 66.358594 50 61 53.2160393"></polyline>
            <polyline id="Fill-724" fill="#70903D" points="55 56.2155836 59.6408996 59 65 55.7844164 60.3591004 53 55 56.2155836"></polyline>
            <polyline id="Fill-725" fill="#ADCD4D" points="50 59.2150573 54.6408996 62 60 58.7839607 55.3591004 56 50 59.2150573"></polyline>
            <polyline id="Fill-726" fill="#70903D" points="45 62.2155836 49.6408996 65 55 61.7853986 50.3591004 59 45 62.2155836"></polyline>
            <polyline id="Fill-727" fill="#70903D" points="67 45.2150573 71.641406 48 77 44.7849427 72.3595389 42 67 45.2150573"></polyline>
            <polyline id="Fill-728" fill="#ADCD4D" points="61 48.2155836 65.641406 51 71 47.7853986 66.358594 45 61 48.2155836"></polyline>
            <polyline id="Fill-729" fill="#70903D" points="56 51.2150573 60.6408996 54 66 50.7839607 61.3581554 48 56 51.2150573"></polyline>
            <polyline id="Fill-730" fill="#ADCD4D" points="51 54.2150573 55.6408996 57 61 53.7849427 56.3591004 51 51 54.2150573"></polyline>
            <polyline id="Fill-731" fill="#70903D" points="46 57.2160393 50.6408996 60 56 56.7849427 51.3591004 54 46 57.2160393"></polyline>
            <polyline id="Fill-732" fill="#ADCD4D" points="41 60.2146014 45.6408996 63 51 59.7844164 46.3591004 57 41 60.2146014"></polyline>
            <polyline id="Fill-733" fill="#ADCD4D" points="66.6404611 45 72 41.7844164 67.358594 39 62 42.2146014 66.6404611 45"></polyline>
            <polyline id="Fill-734" fill="#70903D" points="57 45.2160393 61.6408996 48 67 44.7849427 62.3591004 42 57 45.2160393"></polyline>
            <polyline id="Fill-735" fill="#ADCD4D" points="52 48.2155836 56.6418446 51 62 47.7844164 57.3591004 45 52 48.2155836"></polyline>
            <polyline id="Fill-736" fill="#70903D" points="46 51.2155836 50.6408996 54 56 50.7844164 51.3581554 48 46 51.2155836"></polyline>
            <polyline id="Fill-737" fill="#ADCD4D" points="41 54.2150573 45.6408996 57 51 53.7839607 46.3591004 51 41 54.2150573"></polyline>
            <polyline id="Fill-738" fill="#70903D" points="41.3591004 54 36 57.2155836 40.6408996 60 46 56.7853986 41.3591004 54"></polyline>
            <polyline id="Fill-739" fill="#70903D" points="62.6408996 43 68 39.7853986 63.3591004 37 58 40.2155836 62.6408996 43"></polyline>
            <polyline id="Fill-740" fill="#ADCD4D" points="62 42.7839607 57.3591004 40 52 43.2160393 56.6408996 46 62 42.7839607"></polyline>
            <polyline id="Fill-741" fill="#70903D" points="57 45.7844164 52.3591004 43 47 46.2146014 51.6408996 49 57 45.7844164"></polyline>
            <polyline id="Fill-742" fill="#ADCD4D" points="52 48.7849427 47.3591004 46 42 49.2150573 46.6418446 52 52 48.7849427"></polyline>
            <polyline id="Fill-743" fill="#70903D" points="42.3581554 49 37 52.2160393 41.6408996 55 47 51.7849427 42.3581554 49"></polyline>
            <polyline id="Fill-744" fill="#ADCD4D" points="37.3591004 52 32 55.2146014 36.6408996 58 42 54.7844164 37.3591004 52"></polyline>
            <polyline id="Fill-745" fill="#ADCD4D" points="63 36.7844164 58.3591004 34 53 37.2146014 57.6408996 40 63 36.7844164"></polyline>
            <polyline id="Fill-746" fill="#70903D" points="58 39.784487 53.3591004 37 48 40.215513 52.6408996 43 58 39.784487"></polyline>
            <polyline id="Fill-747" fill="#ADCD4D" points="53 42.7853986 48.3591004 40 43 43.2155836 47.6408996 46 53 42.7853986"></polyline>
            <polyline id="Fill-748" fill="#70903D" points="47 45.7844164 42.3591004 43 37 46.2155836 41.6408996 49 47 45.7844164"></polyline>
            <polyline id="Fill-749" fill="#ADCD4D" points="42 48.7839607 37.3591004 46 32 49.2150573 36.6418446 52 42 48.7839607"></polyline>
            <polyline id="Fill-750" fill="#70903D" points="32.358594 49 27 52.2155836 31.641406 55 37 51.7853986 32.358594 49"></polyline>
            <polyline id="Fill-751" fill="#70903D" points="59 33.7853986 54.3591004 31 49 34.2155836 53.6408996 37 59 33.7853986"></polyline>
            <polyline id="Fill-752" fill="#ADCD4D" points="53 36.7839607 48.3591004 34 43 37.2160393 47.6408996 40 53 36.7839607"></polyline>
            <polyline id="Fill-753" fill="#70903D" points="48 39.7844164 43.3591004 37 38 40.2146014 42.6408996 43 48 39.7844164"></polyline>
            <polyline id="Fill-754" fill="#ADCD4D" points="43 42.7849427 38.3591004 40 33 43.2160393 37.6408996 46 43 42.7849427"></polyline>
            <polyline id="Fill-755" fill="#70903D" points="38 45.7844164 33.3591004 43 28 46.2155836 32.6408996 49 38 45.7844164"></polyline>
            <polyline id="Fill-756" fill="#ADCD4D" points="33 48.7844164 28.3591004 46 23 49.2146014 27.6408996 52 33 48.7844164"></polyline>
            <path d="M76.5518054,16 C76.5518054,16 73.139443,19.0960193 71.1481487,20.1514597 C63.2585222,21.7227511 60.7599606,21.1585105 58.4250916,20.7430906 C57.1209468,20.5102729 55.5226948,21.4844553 59.6617807,22.3636846 C59.8056863,23.8053285 60.0431306,24.7192522 61.1853816,24.95207 C62.3267332,25.1848877 64.5509747,24.5001297 65.2767988,24.3823513 C66.0026228,24.2645729 71.1481487,24.700992 72.8525311,23.9678444 C74.1153031,23.4246031 79,20.4226239 79,20.4226239 L76.5518054,16" id="Fill-757" fill="#F4C0AC"></path>
            <path d="M72,18.259773 C72,18.259773 72.5489634,19.7183774 73.8038695,20.9852849 C75.0606334,22.2521924 76.2022171,23 76.2022171,23 C76.2022171,23 82.5965722,17.6723455 81.9547216,15.7003352 C81.312871,13.7292739 80.1870781,12.7413707 78.699954,13.0583348 C77.2128299,13.37435 72,18.259773 72,18.259773" id="Fill-758" fill="#4672AB"></path>
            <path d="M79.868961,33.4224851 C82.3613714,35.2749444 86.0352731,37.6499398 88.7930106,36.8351536 C91.3316452,36.0841815 93.6382342,33.8349648 95,31.7697917 C94.038536,28.2267204 92.424386,19.4536653 89.635216,16.1704747 C86.7415793,12.7624304 84.5098736,12.4535331 84.5098736,12.4535331 C84.5098736,12.4535331 82.3169962,10.3929842 78.9306092,15.0560396 C75.5432977,19.7190951 77.3691547,24.1962572 78.7207512,27.659792 C80.3302788,31.7836643 79.2976295,31.1640199 79.868961,33.4224851" id="Fill-759" fill="#4391C2"></path>
            <path d="M85.0671442,23 C85.0671442,23 84.7254705,28.7106758 84.4789704,31.3350438 C84.2619743,33.6438289 84.4675496,39.4551254 84.3685689,41.4144827 C84.2543604,43.6757018 83.1341653,43.360119 82.2157385,44.4385888 C81.4495898,45.3386857 82.9333486,45.2572745 83.4130244,44.9554127 C84.7359396,44.1211765 84.8206442,45.8555096 84.8520516,46.083278 C84.8834589,46.3101317 85.3593277,49.0927484 87.7500924,48.9976162 C89.7887143,48.9152903 88.9940134,45.6039581 88.7418029,44.085502 C88.643774,43.5000731 87.6168492,41.7474454 87.6396909,40.3415013 C87.6739534,38.1004063 88.8436389,34.3564057 89.0178068,32.5717623 C89.3775636,28.8734982 90,23 90,23 L85.0671442,23" id="Fill-760" fill="#F4C0AC"></path>
            <path d="M84.0014121,26.7165998 C84.0014121,26.7165998 85.4503387,27.5754714 86.9960539,27.9011875 C88.542737,28.2278134 91.561576,27.6400687 91.561576,27.6400687 C91.561576,27.6400687 92.6398019,23.0764038 91.4144572,19.9884695 C90.1891125,16.8996254 88.072344,16.2208985 85.9749333,17.8795032 C83.8765547,19.5371981 84.0014121,26.7165998 84.0014121,26.7165998" id="Fill-761" fill="#4672AB"></path>
            <path d="M80.5477379,12.2362704 L80,15.9464133 C80,15.9464133 82.0189986,18.0017191 83.8843986,16.3710402 C85.7488327,14.7394321 86,14.0072527 86,14.0072527 L84.9064563,9 L80.5477379,12.2362704" id="Fill-762" fill="#EC9986"></path>
            <path d="M82.8171907,1.85772312 C80.9846013,0.546030096 76.7274716,0.232508078 75.306222,4.65770138 C73.8140517,9.29726063 78.1449389,14.913271 80.3340226,13.8744932 C81.5604769,13.2927777 84.1155112,11.2784931 84.780274,8.83830973 C85.5282504,6.09215904 84.2403316,2.87572533 82.8171907,1.85772312" id="Fill-763" fill="#F4C0AC"></path>
            <path d="M75.5751187,6.34087985 C76.2947096,7.05775863 77.3727551,8.00618742 79.4278352,7.42453383 C82.8041021,6.46962164 83.6917465,7.08739703 84.2012705,7.35414263 C84.7769432,7.65515762 84.8386225,9 84.8386225,9 C84.8386225,9 86.5012797,7.23558903 85.8478375,4.56164968 C85.4411122,2.89448971 83.1616628,-0.354619834 80.121503,0.0316055587 C77.0804492,0.416904752 75.3650518,2.55920531 75.0396715,4.37733588 C74.8760875,5.28871667 75.2506323,6.01670985 75.5751187,6.34087985" id="Fill-764" fill="#33221F"></path>
            <polyline id="Fill-768" fill="#513731" points="83.4974121 57 77 53.2868966 77.5016589 53 84 56.7131034 83.4974121 57"></polyline>
            <polyline id="Fill-769" fill="#513731" points="84.4974121 57 78 53.2868306 78.5016589 53 85 56.7122501 84.4974121 57"></polyline>
            <polyline id="Fill-770" fill="#513731" points="85.4974788 56 79 52.2868966 79.5025212 52 86 55.714023 85.4974788 56"></polyline>
            <polyline id="Fill-771" fill="#513731" points="86.4974121 56 80 52.2868966 80.5016589 52 87 55.7131034 86.4974121 56"></polyline>
            <polyline id="Fill-772" fill="#513731" points="87.4974788 55 81 51.2868966 81.5025212 51 88 54.7131034 87.4974788 55"></polyline>
            <polyline id="Fill-773" fill="#513731" points="88.4974788 54 82 50.2868966 82.5025212 50 89 53.7131034 88.4974788 54"></polyline>
            <polyline id="Fill-774" fill="#513731" points="89.4974121 54 83 50.2868966 83.5025879 50 90 53.7131034 89.4974121 54"></polyline>
            <path d="M27.6730345,17 C27.6730345,17 28.9103898,17.5689509 30.2574744,19.3733643 C31.6054512,21.1777776 33.2683425,25.1057274 34.3647445,25.9144766 C37.6209426,28.320665 41.060023,29.1485616 42.6774167,30.8171196 C43.9031745,32.0808472 44.6623593,33.1476302 43.1939478,33.9117022 C41.9574847,34.5554191 39.317734,31.4945724 37.3158413,30.7131767 C35.2657747,29.9135453 32.7482429,28.8613507 31.1067622,27.5921525 C30.0353393,26.7633441 27.071753,24.3516851 27.071753,24.3516851 C27.071753,24.3516851 24.299078,18.216315 27.6730345,17" id="Fill-775" fill="#F4C0AC"></path>
            <path d="M30,32.7533098 C29.8523084,32.6746156 29.7356138,32.6194392 29.6891183,32.6176301 L29.6872949,32.6176301 C29.69003,29.0537785 29.9781198,25.0050983 29.3891767,23.5741304 C28.5066738,21.4249651 26.9130631,17.7996053 26.9130631,17.7996053 L19.9824978,17 L16.7806897,19.7597237 C16.7806897,19.7597237 17.6996596,29.4825261 16.4707196,35.8278102 C16.289296,36.7639997 15.9145969,37.7906422 16.0176164,39 C21.1047717,38.2275306 26.1536365,35.9065044 30,32.7533098" id="Fill-776" fill="#DE4C4D"></path>
            <path d="M25.4528487,16.2367136 L26,19.9468851 C26,19.9468851 23.981336,22.0013714 22.1168959,20.3712017 C20.2514735,18.7400871 20,18.006747 20,18.006747 L21.0952849,13 L25.4528487,16.2367136" id="Fill-777" fill="#EC9986"></path>
            <path d="M23.1840112,6.79138333 C25.0150863,5.58131923 29.2725283,5.29143574 30.6939196,9.3755129 C32.1855149,13.6590512 27.8559455,18.8432672 25.6661566,17.8840809 C24.4399903,17.3468656 21.8847557,15.4870015 21.2202216,13.2353071 C20.471058,10.7008212 21.7597348,7.73106681 23.1840112,6.79138333" id="Fill-778" fill="#F4C0AC"></path>
            <path d="M17.3485321,20.0582861 C18.1699031,19.6394769 20.1419212,21.5487006 21.0633485,23.5070888 C21.9847757,25.4654771 22.0857416,29.897571 22.6378703,31.6474652 C23.8476415,35.4841217 24.4652615,35.286553 25.7923715,37.6865118 C26.5437031,39.0449104 27.195888,39.5920937 28.8895678,40.4042194 C30.5814283,41.2154346 31.3154774,41.6834084 30.8743202,42.2833981 C30.5723322,42.6949237 29.1806405,41.5431983 29.2315783,41.9984257 C29.282516,42.4545636 30.7842696,44.5822965 30.9998454,45.7230963 C30.1575535,45.9589041 28.5239076,46.4596542 27.0203348,44.9983743 C26.3790651,44.3756232 25.9733824,42.1969049 24.3069907,40.2530839 C23.2918744,39.0667613 20.2046838,36.2926055 19.0986072,34.1066036 C17.7624013,31.4635533 14.0075624,21.7599261 17.3485321,20.0582861" id="Fill-779" fill="#F4C0AC"></path>
            <path d="M30.9821235,11.9941323 C30.9459539,11.9181633 30.9162764,11.8364245 30.9042199,11.7450694 C30.7957112,10.9257584 31.8919268,9.01499438 31.9902337,7.06961157 C32.0894681,5.12422876 31.4504728,3.48656839 29.2450577,3.04229411 C27.0396427,2.59898147 26,5.78679364 26,5.78679364 C26,5.78679364 27.5283953,10.843058 29.094815,13 C29.8070769,12.9230694 30.4989354,12.5538025 30.9821235,11.9941323" id="Fill-780" fill="#513731"></path>
            <path d="M27,5.53982621 C27,5.53982621 28.0960046,4.32521723 29.4146609,5.53982621 C30.7316739,6.75362056 29.4146609,8 29.4146609,8 L27,5.53982621" id="Fill-781" fill="#DE4C4D"></path>
            <path d="M31.6227779,8.68095378 C30.4570478,6.52582839 27.9923868,3.34731944 25.0932589,4.11786706 C18.6513484,5.83122416 19.6516951,12.854136 20.9908544,15 C21.7560882,14.533226 23.2776164,13.6209791 24.2931604,13.0504775 C26.2536252,14.0831224 31.8856035,11.8400138 31.8856035,11.8400138 C31.8856035,11.8400138 32.2726903,9.88400831 31.6227779,8.68095378" id="Fill-782" fill="#33221F"></path>
            <path d="M21.1970399,8.05920658 C21.7520181,7.8029276 22.9023979,8.37654842 22.9950347,9.82077764 C23.0868292,11.2650068 21.8833938,12.1522687 21.2458847,11.9783321 C20.3801523,11.7414822 18.9636524,9.09079887 21.1970399,8.05920658" id="Fill-783" fill="#DE4C4D"></path>
            <path d="M39,30.2188669 C39,30.2188669 39.1838863,31.7059346 39.3948328,32.4944691 C39.6051643,33.2809581 40.0012272,33.2380029 40,31.7335486 C39.9993821,30.9439914 39,30 39,30 L39,30.2188669" id="Fill-784" fill="#F4C0AC"></path>
            <polygon id="Fill-787" fill="#C74C30" points="65.373 61.5905 65.627 61.5905 65.627 61.4095 65.373 61.4095"></polygon>
            <polygon id="Fill-807" fill="#C74C30" points="65.373 61.59 65.627 61.59 65.627 61.41 65.373 61.41"></polygon>
            <polygon id="Fill-827" fill="#C74C30" points="65.373 60.59 65.627 60.59 65.627 60.41 65.373 60.41"></polygon>
            <polygon id="Fill-847" fill="#C74C30" points="65.373 60.5895 65.627 60.5895 65.627 60.4105 65.373 60.4105"></polygon>
            <polygon id="Fill-867" fill="#C74C30" points="65.373 60.59 65.627 60.59 65.627 60.41 65.373 60.41"></polygon>
            <polygon id="Fill-887" fill="#C74C30" points="65.373 60.59 65.627 60.59 65.627 60.41 65.373 60.41"></polygon>
            <polygon id="Fill-907" fill="#C74C30" points="65.373 59.59 65.627 59.59 65.627 59.41 65.373 59.41"></polygon>
            <polygon id="Fill-927" fill="#C74C30" points="65.373 59.5905 65.627 59.5905 65.627 59.4095 65.373 59.4095"></polygon>
            <path d="M20.2336397,8.63174548 C20.2336397,8.63174548 18.2740082,6.98902297 16.3050004,9.00149601 C14.3359926,11.013969 14.9727237,13.8717176 15.773965,14.9883274 C16.5743538,16.105857 15,17.7761728 15,17.7761728 C15,17.7761728 16.9170123,18.5883363 18.4393707,17.1185319 C19.9617291,15.6487276 18.3021369,13.6325754 19.1349163,12.6180609 C19.9685482,11.6035464 20.5848221,11.1344599 20.8166706,10.4593433 C21.0502239,9.77318928 21.2317818,9.41447608 20.2336397,8.63174548" id="Fill-968" fill="#513731"></path>
            <path d="M46,43.0005865 C46,42.4480938 46.6709295,42 47.4990643,42 C48.3281347,42 49,42.4480938 49,43.0005865 C49,43.5519062 48.3281347,44 47.4990643,44 C46.6709295,44 46,43.5519062 46,43.0005865" id="Fill-971" fill="#DE4C4D"></path>
            <path d="M51,45.0005865 C51,44.4480938 51.6709295,44 52.4990643,44 C53.3281347,44 54,44.4480938 54,45.0005865 C54,45.5519062 53.3281347,46 52.4990643,46 C51.6709295,46 51,45.5519062 51,45.0005865" id="Fill-971" fill="#DE4C4D"></path>
            <path d="M56,48.0005865 C56,47.4469208 56.6718653,47 57.4990643,47 C58.3281347,47 59,47.4469208 59,48.0005865 C59,48.5519062 58.3281347,49 57.4990643,49 C56.6718653,49 56,48.5519062 56,48.0005865" id="Fill-973" fill="#F0B741"></path>
            <polygon id="Fill-978" fill="#C74C30" points="65.3995 36.576 65.6005 36.576 65.6005 36.424 65.3995 36.424"></polygon>
            <polygon id="Fill-979" fill="#C74C30" points="75.3725 37.59 75.6275 37.59 75.6275 37.41 75.3725 37.41"></polygon>
            <path d="M72,37.4396351 C72,37.4396351 72.286119,37.3886351 72.5561851,37.4236351 C72.8243626,37.4586351 73,37.5886351 73,37.5886351 C73,37.5886351 72.7242682,37.4826351 72.4438149,37.4786351 C72.1643059,37.4756351 72,37.4396351 72,37.4396351" id="Fill-984" fill="#E3653F"></path>
            <path d="M72,37.398 C72,37.398 72.3281402,37.42 72.5511198,37.444 C72.7721519,37.468 73,37.602 73,37.602 C73,37.602 72.7429406,37.536 72.4255112,37.504 C72.1840312,37.479 72,37.398 72,37.398" id="Fill-985" fill="#E3653F"></path>
            <path d="M72.0885,37.4294924 C72.0885,37.4294924 72.1895,37.4774924 72.4365,37.4904924 C72.6835,37.5024924 72.9115,37.5704924 72.9115,37.5704924 C72.9115,37.5704924 72.5315,37.5724924 72.3655,37.5304924 C72.2005,37.4894924 72.0885,37.4294924 72.0885,37.4294924" id="Fill-986" fill="#E3653F"></path>
            <path d="M72.6156853,37.3850039 L72.4376853,37.6120039 C72.3806853,37.6330039 72.2996853,37.5420039 72.6156853,37.3850039" id="Fill-989" fill="#E3653F"></path>
            <polygon id="Fill-998" fill="#C74C30" points="68.4 40.5765 68.6 40.5765 68.6 40.4235 68.4 40.4235"></polygon>
            <polygon id="Fill-1018" fill="#C74C30" points="41.4 38.576 41.6 38.576 41.6 38.424 41.4 38.424"></polygon>
            <polygon id="Fill-1019" fill="#C74C30" points="32.3725 40.5905 32.6275 40.5905 32.6275 40.4095 32.3725 40.4095"></polygon>
            <path d="M34.624,75.541 C34.559,75.52 34.47,75.49 34.376,75.459 C34.447,75.483 34.532,75.511 34.624,75.541" id="Fill-1056" fill="#513731"></path>
            <polyline id="Fill-1057" fill="#513731" points="33.563 75.521 33.437 75.479 33.563 75.521"></polyline>
            <path d="M32,47.054717 C32,47.054717 30.6676504,44.6816037 30.0965071,47.054717 C29.5635672,49.2589608 31.411665,50 31.411665,50 L32,47.054717" id="Fill-1061" fill="#F4C0AC"></path>
        </g>
    </g>
</svg>